<svg width="402" height="379" viewBox="0 0 402 379" fill="none" xmlns="http://www.w3.org/2000/svg">
<path d="M275 162.5L225 212.5H175L131.25 256.25V212.5H75V25H275V162.5Z" fill="white"/>
<path d="M62.5 0L0 62.5V287.5H75V350L137.5 287.5H187.5L300 175V0H62.5ZM275 162.5L225 212.5H175L131.25 256.25V212.5H75V25H275V162.5Z" fill="#9146FF"/>
<path d="M233 71.8889H213.667M186.278 59V84.7778M181.444 71.8889H117M142.778 117H117M166.944 104.111V129.889M233 117H168.556M233 162.111H213.667M186.278 149.222V175M181.444 162.111H117" stroke="#9146FF" stroke-width="17" stroke-linecap="round" stroke-linejoin="round"/>
<path d="M364.933 248.358L391.269 252.663C392.312 252.834 393.26 253.371 393.943 254.178C394.626 254.984 395.001 256.006 395 257.063V281.568C395 282.616 394.629 283.631 393.954 284.433C393.279 285.236 392.343 285.775 391.31 285.955L364.933 290.588C363.416 295.877 361.312 300.974 358.66 305.771L374.254 327.419C374.876 328.279 375.17 329.332 375.085 330.389C375 331.446 374.541 332.438 373.789 333.187L356.46 350.516C355.72 351.259 354.741 351.718 353.696 351.81C352.651 351.903 351.607 351.623 350.747 351.022L328.881 335.674C324.04 338.364 318.915 340.509 313.601 342.07L308.955 368.324C308.771 369.356 308.229 370.291 307.424 370.964C306.619 371.636 305.603 372.003 304.554 372H280.063C279.01 372.001 277.991 371.628 277.187 370.947C276.384 370.266 275.848 369.322 275.676 368.283L271.317 342.166C265.982 340.621 260.834 338.489 255.969 335.811L234.266 351.022C233.407 351.623 232.363 351.903 231.318 351.81C230.273 351.718 229.294 351.259 228.554 350.516L211.211 333.187C210.467 332.44 210.011 331.454 209.923 330.404C209.836 329.354 210.122 328.306 210.732 327.447L226.08 305.99C223.372 301.102 221.217 295.926 219.657 290.56L193.676 285.955C192.646 285.772 191.713 285.232 191.041 284.43C190.368 283.627 190 282.614 190 281.568V257.063C190 254.877 191.572 253.018 193.731 252.663L219.711 248.33C221.283 242.959 223.429 237.807 226.135 232.914L210.965 211.239C210.367 210.381 210.089 209.34 210.182 208.298C210.274 207.256 210.73 206.279 211.47 205.54L228.813 188.224C229.559 187.478 230.545 187.02 231.596 186.933C232.647 186.845 233.695 187.133 234.553 187.746L256.078 203.121C260.936 200.464 266.074 198.355 271.399 196.834L275.663 170.731C275.834 169.688 276.371 168.74 277.178 168.057C277.984 167.374 279.006 166.999 280.063 167H304.568C306.741 167 308.586 168.558 308.968 170.69L313.56 196.93C318.877 198.461 324.002 200.593 328.867 203.285L350.433 187.773C351.291 187.15 352.343 186.853 353.4 186.935C354.457 187.018 355.45 187.475 356.2 188.224L373.53 205.554C374.271 206.296 374.727 207.275 374.817 208.32C374.907 209.365 374.625 210.409 374.022 211.266L358.647 233.174C361.284 237.985 363.403 243.069 364.933 248.344V248.358ZM261.285 269.5C261.285 277.775 264.573 285.711 270.424 291.562C276.275 297.414 284.211 300.701 292.486 300.701C300.761 300.701 308.697 297.414 314.549 291.562C320.4 285.711 323.687 277.775 323.687 269.5C323.687 261.225 320.4 253.289 314.549 247.438C308.697 241.586 300.761 238.299 292.486 238.299C284.211 238.299 276.275 241.586 270.424 247.438C264.573 253.289 261.285 261.225 261.285 269.5Z" fill="white" stroke="#9146FF" stroke-width="14"/>
</svg>
